<?xml version="1.0" standalone="no"?>
<!DOCTYPE svg PUBLIC "-//W3C//DTD SVG 20010904//EN"
 "http://www.w3.org/TR/2001/REC-SVG-20010904/DTD/svg10.dtd">
<svg version="1.0" xmlns="http://www.w3.org/2000/svg"
 width="920.000000pt" height="476.000000pt" viewBox="0 0 920.000000 476.000000"
 preserveAspectRatio="xMidYMid meet">

<g transform="translate(0.000000,476.000000) scale(0.100000,-0.100000)"
fill="#000000" stroke="none">
<path d="M1320 3713 c-57 -65 -112 -126 -124 -137 -20 -18 -21 -28 -24 -335
-2 -174 0 -331 3 -349 6 -30 79 -121 208 -259 l40 -43 388 0 c213 0 394 3 403
6 9 3 67 65 128 138 l113 131 0 241 c0 189 -3 244 -14 257 -12 15 -52 17 -397
17 -334 0 -385 -2 -398 -16 -19 -18 -21 -70 -3 -81 6 -4 40 -39 73 -78 34 -38
80 -90 102 -114 l40 -43 91 -6 91 -5 0 -48 0 -49 -235 0 -235 0 0 270 0 270
329 0 330 0 49 53 c123 129 203 224 208 245 14 53 24 52 -541 52 l-522 0 -103
-117z m1061 57 c-13 -11 -32 -20 -43 -20 -14 0 -18 -5 -15 -15 8 -20 -53 -67
-69 -54 -8 7 -15 6 -20 -2 -5 -9 -11 -7 -21 6 -7 11 -13 15 -13 9 0 -5 -5 -2
-10 6 -8 13 -10 13 -10 1 0 -11 -4 -10 -16 5 -8 10 -12 12 -8 4 6 -12 4 -13
-7 -2 -7 6 -17 12 -22 12 -4 0 -5 -6 -1 -12 5 -10 4 -10 -6 -1 -17 16 -11 22
23 25 15 1 27 5 27 8 0 4 -127 6 -282 6 -156 -1 -311 1 -345 4 -34 3 -67 4
-73 2 -20 -7 -210 -237 -210 -255 0 -12 11 -5 37 23 47 53 69 65 69 39 0 -10
-5 -19 -11 -19 -5 0 -3 -5 5 -10 8 -5 11 -10 5 -10 -5 0 -10 -19 -11 -43 -1
-36 -9 -92 -14 -92 -1 0 -3 -7 -5 -15 -2 -8 -7 -26 -10 -40 -4 -14 -7 -35 -8
-47 -1 -13 -4 -23 -7 -23 -8 0 -5 -43 3 -57 4 -7 3 -14 -2 -17 -10 -7 -9 -25
2 -43 4 -6 3 -15 -3 -18 -8 -5 -8 -11 0 -20 7 -9 8 -15 1 -19 -7 -4 -7 -15 -1
-31 6 -15 6 -27 0 -30 -7 -4 -6 -13 0 -26 8 -14 7 -19 -2 -19 -9 0 -10 -3 -2
-8 6 -4 10 -15 8 -24 -1 -10 3 -18 9 -18 7 0 5 -5 -3 -10 -11 -7 -11 -10 -2
-10 7 0 10 -4 7 -10 -3 -5 0 -10 7 -10 9 0 9 -3 -2 -10 -10 -6 -11 -10 -3 -10
7 0 19 -13 27 -28 8 -15 30 -37 50 -47 19 -10 33 -22 30 -26 -2 -4 6 -5 18 -1
16 4 19 2 13 -9 -8 -12 -6 -12 8 0 13 11 17 11 17 1 0 -8 3 -10 7 -7 3 4 13 1
21 -6 13 -10 14 -9 8 1 -7 11 -4 12 11 3 11 -6 23 -7 27 -4 3 3 6 1 6 -5 0 -6
9 -9 20 -7 11 2 20 -1 20 -6 0 -6 5 -7 10 -4 6 3 10 1 10 -5 0 -6 4 -9 9 -5 5
3 12 1 15 -3 3 -5 18 -7 32 -4 21 4 25 2 19 -9 -6 -11 -5 -12 5 -2 11 10 17
10 29 0 10 -8 12 -8 8 -1 -5 9 3 10 28 4 19 -4 36 -6 38 -4 12 12 262 1 276
-12 2 -2 -138 -4 -312 -4 l-316 0 -53 62 c-29 34 -72 83 -95 108 -24 26 -43
54 -43 63 0 10 -5 14 -15 11 -13 -5 -15 31 -15 288 0 190 -4 298 -10 304 -8 8
25 51 105 142 l117 132 476 0 c476 -1 477 -1 453 -20z m-1 -449 c0 -30 -31
-33 -332 -28 -244 4 -310 7 -338 20 -32 14 -9 15 318 16 196 1 352 -3 352 -8z
m-897 -150 c-5 -183 -4 -180 -12 -146 -4 17 -6 38 -5 48 2 9 -3 17 -9 17 -8 0
-8 3 2 9 9 6 10 11 2 15 -7 5 -7 15 -1 31 7 18 6 25 -3 25 -8 0 -7 4 3 10 13
9 13 10 0 10 -13 0 -13 1 0 10 13 9 13 10 0 10 -13 0 -13 1 0 10 13 9 13 10 0
10 -13 0 -13 1 0 10 13 9 13 10 0 10 -12 0 -12 2 -2 9 8 4 13 11 13 15 -1 3
-1 14 0 24 1 11 3 9 8 -7 3 -13 5 -67 4 -120z m707 87 c0 8 19 12 59 12 49 0
59 -3 64 -19 3 -14 1 -18 -9 -14 -8 3 -11 10 -7 16 3 6 1 7 -6 3 -8 -6 -9 -12
-2 -20 8 -9 7 -13 -4 -13 -8 0 -15 5 -15 11 0 6 -5 4 -10 -4 -7 -11 -10 -11
-10 -2 0 7 -4 11 -9 8 -5 -3 -12 1 -15 9 -4 12 -10 13 -25 6 -19 -11 -31 -6
-31 13 0 6 5 4 10 -4 6 -10 10 -11 10 -2z m-194 -80 c3 -4 10 -5 16 -2 8 5 9
1 4 -11 -5 -15 -4 -16 9 -5 11 9 15 9 15 1 0 -7 4 -10 9 -6 5 3 12 1 15 -4 4
-5 -32 -8 -87 -8 -81 2 -92 4 -91 19 1 10 -2 15 -7 12 -5 -3 -9 0 -9 6 0 13
118 11 126 -2z m135 -125 c-8 -15 -10 -15 -11 -2 0 17 10 32 18 25 2 -3 -1
-13 -7 -23z m-20 -174 c-21 -17 -41 -19 -225 -20 -255 -2 -358 0 -364 5 -2 3
-1 9 3 15 4 7 98 11 284 11 239 0 280 2 291 15 10 12 16 13 24 5 8 -8 5 -17
-13 -31z"/>
<path d="M2180 3742 c0 -4 29 -8 65 -8 35 0 63 2 60 4 -8 9 -125 13 -125 4z"/>
<path d="M2720 3757 c-36 -39 -93 -101 -127 -137 l-63 -64 0 -572 c0 -496 2
-573 15 -584 13 -11 15 -101 15 -700 0 -670 0 -687 20 -705 29 -26 73 -13 165
49 44 30 94 62 112 71 17 9 49 31 70 50 l38 33 1 183 2 184 356 5 356 5 128
195 c70 107 132 204 138 215 6 13 11 -118 14 -382 4 -311 8 -405 18 -415 10
-10 116 -13 505 -14 271 -1 499 1 508 5 9 3 47 42 85 86 114 131 104 129 104
25 0 -120 -5 -117 213 -116 155 1 170 3 183 20 11 15 14 56 14 168 l0 148 260
0 260 0 2 -161 3 -162 75 -48 c41 -26 91 -58 110 -69 19 -12 60 -37 90 -56 30
-19 67 -34 82 -34 56 0 55 -6 54 600 l-1 556 -35 43 c-37 46 -47 57 -154 175
l-68 76 -415 0 -416 0 -57 -62 c-31 -35 -89 -100 -128 -146 l-72 -83 0 -305 0
-304 -403 0 -404 0 -6 822 c-4 451 -5 823 -3 825 2 2 24 -27 48 -64 76 -115
193 -296 217 -336 12 -20 31 -42 41 -47 10 -6 68 -10 127 -10 106 0 110 1 134
28 23 24 60 80 237 354 l52 82 0 -281 c0 -258 1 -281 18 -296 16 -14 44 -17
183 -17 122 0 170 3 184 13 17 13 18 44 19 601 1 323 -2 596 -6 607 -7 18 -19
19 -213 19 l-205 0 -37 -62 c-21 -33 -50 -75 -64 -92 -25 -31 -63 -89 -153
-233 -27 -43 -63 -100 -81 -128 -18 -27 -40 -62 -49 -77 -9 -16 -20 -28 -24
-28 -4 0 -24 28 -46 63 -56 90 -142 222 -197 302 -27 39 -76 112 -110 163
l-61 92 -203 0 c-112 0 -206 -4 -209 -9 -3 -5 -6 -406 -6 -891 l0 -883 -43 67
c-23 36 -78 121 -122 189 l-80 122 -503 3 c-276 1 -502 6 -502 10 0 4 45 36
101 72 55 35 107 73 115 84 11 16 14 57 14 173 l0 153 260 0 260 0 0 -153 c0
-106 4 -157 12 -165 8 -8 66 -12 194 -12 178 0 183 1 198 22 14 20 16 81 16
471 0 315 -3 455 -11 470 -7 12 -35 45 -63 73 -28 27 -82 85 -119 127 l-68 77
-417 0 -417 0 -65 -73z m860 13 c12 -23 20 -22 -102 -20 -49 1 -88 -3 -88 -8
0 -5 48 -8 107 -6 118 3 104 9 184 -82 54 -61 82 -118 52 -107 -12 5 -12 7 -1
15 9 7 7 8 -9 5 -15 -3 -20 -1 -17 8 3 7 0 16 -7 21 -8 5 -10 3 -4 -6 5 -8 4
-11 -3 -6 -6 4 -8 14 -5 24 3 9 3 14 -2 10 -4 -4 -14 0 -22 10 -9 10 -12 11
-7 2 6 -11 2 -10 -13 3 -11 9 -23 14 -26 10 -4 -3 -7 -1 -7 4 0 6 -11 10 -25
9 -13 -2 -22 1 -19 6 4 5 -3 8 -13 6 -11 -2 -28 4 -38 12 -17 13 -18 13 -10 0
8 -13 6 -13 -8 -1 -9 7 -24 11 -32 7 -9 -3 -14 -2 -11 3 3 5 -1 12 -10 15 -10
4 -13 2 -9 -7 4 -6 -1 -3 -9 7 -12 15 -16 16 -16 5 0 -9 -3 -10 -8 -3 -4 6
-15 10 -24 8 -10 -1 -18 2 -18 7 0 5 5 9 10 9 6 0 10 4 10 8 0 5 -100 8 -222
8 -123 -1 -242 2 -264 5 -23 3 -50 2 -61 -2 -11 -4 -64 -58 -117 -119 l-96
-112 -1 -66 c-1 -37 0 -71 1 -77 1 -5 -2 -7 -6 -2 -4 4 -9 35 -12 70 -2 34 -8
67 -13 74 -7 8 24 50 106 142 l116 131 379 0 c369 0 380 -1 390 -20z m758 -3
c4 -17 -6 -18 -156 -14 -87 2 -164 7 -171 11 -34 21 0 26 156 24 153 -3 168
-5 171 -21z m1212 3 c0 -11 -3 -20 -7 -20 -5 0 -6 -27 -5 -60 4 -57 3 -60 -23
-70 -20 -7 -25 -15 -21 -28 5 -14 3 -14 -9 2 -11 15 -15 16 -16 5 0 -10 -2
-10 -6 -1 -2 6 -9 12 -14 12 -6 0 -7 -4 -4 -10 10 -16 -1 -11 -16 7 -12 14
-12 16 1 9 13 -7 13 -6 0 6 -8 8 -21 20 -29 28 -11 12 -12 12 -6 1 5 -10 4
-12 -4 -7 -6 4 -9 11 -6 15 5 8 -28 53 -36 48 -2 -1 2 4 10 11 16 13 21 14 89
17 79 4 53 12 -42 14 -52 1 -106 4 -120 7 -33 6 -36 2 -160 -196 -189 -301
-309 -475 -330 -475 -11 0 -21 6 -23 13 -3 6 2 12 10 12 15 0 60 67 312 463
l138 217 158 0 c152 0 159 -1 159 -20z m-1214 -35 c12 -3 37 -28 55 -57 19
-29 37 -57 42 -63 4 -5 22 -32 39 -60 17 -27 41 -66 53 -85 49 -76 105 -174
101 -177 -6 -6 -36 9 -31 16 4 7 -45 7 -52 1 -2 -1 -7 -3 -13 -4 -5 0 -16 -10
-25 -21 -14 -19 -15 -19 -8 -1 4 12 3 17 -4 13 -10 -6 -31 10 -69 55 -46 54
-184 284 -192 318 -9 44 -6 54 18 60 38 9 63 11 86 5z m-989 -152 c-20 -2 -52
-2 -70 0 -17 2 0 4 38 4 39 0 53 -2 32 -4z m-627 -28 c0 -8 -6 -15 -12 -15
-10 0 -10 -2 0 -9 11 -6 10 -11 -3 -25 -12 -12 -13 -16 -3 -17 10 0 10 -2 0
-6 -6 -2 -9 -10 -5 -16 4 -7 -2 -5 -12 3 -17 14 -18 14 -6 -7 6 -13 9 -23 6
-23 -12 0 -20 6 -17 13 1 5 -2 5 -8 2 -6 -4 -9 -14 -5 -24 4 -10 3 -13 -4 -6
-5 6 -13 22 -16 37 -5 21 0 34 30 67 39 43 55 51 55 26z m828 -106 c0 -80 -13
-81 -20 -2 -4 42 4 73 18 73 1 0 2 -32 2 -71z m-88 -74 l0 -95 -260 0 -260 0
0 95 0 95 260 0 260 0 0 -95z m-608 -108 l3 -49 325 1 c200 1 329 6 336 12 18
15 26 -5 10 -27 -15 -20 -35 -21 -408 -23 -143 -1 -190 -5 -201 -15 -11 -12
-18 -12 -45 0 -18 7 -32 18 -32 24 0 6 -4 9 -8 6 -5 -3 -10 1 -11 9 -3 30 -2
81 2 100 3 11 6 22 6 25 1 2 5 0 10 -5 6 -6 11 -32 13 -58z m2467 -427 c2 85
4 166 6 180 2 14 5 37 6 52 2 15 7 24 11 22 5 -3 6 -10 3 -15 -4 -5 0 -9 7 -9
9 0 9 -3 -2 -10 -9 -6 -10 -10 -3 -10 6 0 10 -9 8 -20 -2 -11 0 -22 4 -25 10
-5 7 -57 -3 -73 -3 -6 -1 -14 5 -18 8 -4 7 -9 -2 -15 -12 -7 -12 -9 0 -9 10 0
11 -3 2 -14 -9 -10 -9 -16 -1 -21 6 -4 10 -19 9 -33 -2 -15 0 -32 4 -39 4 -6
2 -15 -4 -19 -8 -4 -7 -9 2 -15 10 -6 11 -9 2 -9 -7 0 -13 -5 -13 -11 0 -5 3
-8 8 -6 4 3 8 -6 8 -19 2 -22 -2 -24 -42 -24 l-44 0 0 188 c0 299 14 339 20
57 5 -226 6 -231 9 -85z m-685 218 c-5 -7 -3 -8 7 -2 19 12 32 12 48 0 11 -8
13 -8 7 2 -7 11 -4 11 13 1 14 -10 17 -15 8 -21 -9 -6 -9 -8 1 -8 7 0 20 -7
28 -15 9 -8 13 -15 9 -15 -4 0 0 -7 7 -15 31 -34 36 -43 31 -49 -4 -3 0 -6 8
-6 11 0 11 -2 -1 -10 -8 -5 -10 -10 -3 -10 13 0 12 -18 -1 -39 -7 -11 -6 -12
5 -6 11 7 11 5 -1 -11 -23 -29 -32 -34 -67 -34 -29 0 -36 7 -86 88 -61 99 -70
122 -50 140 10 10 13 10 13 0 0 -8 5 -6 11 5 5 9 12 17 15 17 3 0 2 -5 -2 -12z
m-1133 -27 c14 -1 35 -10 46 -20 12 -11 24 -17 29 -13 4 4 4 2 0 -5 -3 -6 -2
-14 4 -18 6 -4 8 -11 5 -16 -4 -5 0 -9 7 -9 9 0 9 -3 -2 -10 -10 -6 -11 -10
-2 -10 6 0 11 -3 11 -7 -1 -5 0 -10 1 -13 6 -15 5 -48 -1 -44 -9 5 -6 -17 4
-33 5 -8 3 -13 -5 -13 -8 0 -9 -3 -3 -8 6 -4 10 -32 10 -62 0 -30 5 -58 10
-62 6 -4 -11 -8 -37 -8 l-48 0 -2 118 c-1 64 -1 138 0 165 l2 47 -156 0 c-87
0 -155 2 -153 4 2 2 24 7 49 11 25 4 46 7 47 8 1 2 102 0 184 -2z m-873 -128
c2 34 34 105 40 89 2 -7 7 -10 12 -7 4 3 6 -5 3 -17 -3 -17 -2 -19 5 -10 7 11
10 9 14 -6 3 -11 1 -26 -6 -33 -8 -9 -8 -10 2 -5 6 4 12 2 12 -3 0 -6 -6 -11
-12 -12 -10 0 -10 -2 0 -6 6 -2 12 -9 12 -14 0 -6 -5 -7 -11 -3 -8 4 -8 0 0
-15 7 -13 8 -21 2 -21 -5 0 -8 -9 -6 -20 2 -11 -1 -20 -6 -20 -6 0 -7 -4 -4
-10 3 -5 1 -19 -6 -31 -8 -16 -8 -20 1 -14 9 6 9 3 1 -12 -6 -11 -7 -23 -4
-27 3 -3 0 -6 -8 -6 -11 0 -11 -2 1 -10 13 -9 13 -10 0 -10 -13 0 -13 -1 0
-10 8 -5 10 -10 3 -10 -6 0 -10 -8 -9 -17 2 -10 -2 -21 -8 -25 -8 -5 -7 -8 2
-8 9 0 10 -5 3 -17 -5 -10 -9 -21 -10 -25 -3 -19 -16 0 -19 27 -6 50 -12 41
-12 -18 0 -31 -4 -59 -10 -62 -12 -7 -14 424 -2 476 6 29 8 23 13 -41 3 -41 6
-62 7 -47z m1627 -43 c-3 -5 -2 -10 4 -10 5 0 9 -35 9 -82 -1 -91 -5 -111 -20
-102 -6 4 -5 10 3 15 11 7 11 9 1 9 -7 0 -10 5 -7 10 3 6 0 10 -7 10 -9 0 -9
3 2 10 13 9 13 10 0 10 -13 0 -13 1 0 10 10 6 11 10 3 10 -8 0 -13 13 -13 31
0 20 4 28 12 23 7 -5 8 -3 2 7 -12 19 -12 32 -1 47 11 14 21 16 12 2z m-216
-187 c1 -82 -3 -155 -9 -163 -7 -10 -10 30 -10 125 0 123 5 185 15 185 2 0 4
-66 4 -147z m39 71 c-4 -3 -2 -19 2 -35 6 -20 5 -29 -3 -29 -8 0 -8 -3 -2 -8
15 -11 17 -32 3 -32 -9 0 -8 -4 2 -10 13 -9 13 -10 0 -10 -13 0 -13 -1 0 -10
8 -5 10 -10 4 -10 -6 0 -9 -10 -7 -23 3 -14 -2 -29 -11 -36 -14 -12 -16 -4
-16 78 0 83 10 131 27 131 3 0 4 -3 1 -6z m217 -205 c-9 -16 -37 -42 -62 -57
-25 -15 -80 -51 -121 -80 -66 -47 -77 -51 -90 -39 -12 13 0 24 104 92 66 42
130 85 144 95 36 27 43 24 25 -11z m-15 -563 c0 -272 -4 -497 -9 -500 -4 -3
-14 7 -21 22 -10 19 -14 92 -16 261 -2 128 -5 239 -8 247 -3 8 0 14 7 14 8 0
8 3 2 8 -6 4 -10 23 -10 42 1 19 -3 40 -7 47 -5 6 -4 14 2 18 8 5 8 10 0 20
-6 7 -7 16 -2 19 5 3 8 23 7 46 -1 23 3 40 9 40 6 0 5 4 -3 9 -9 6 -10 11 -2
15 7 4 7 15 1 30 -5 13 -6 27 -3 30 4 4 7 23 8 44 1 36 22 82 37 82 5 0 8
-222 8 -494z m-612 382 c2 -13 -3 -18 -17 -18 -12 0 -21 -4 -21 -9 0 -4 12 -8
26 -7 30 1 55 -27 79 -89 14 -35 14 -38 0 -21 -11 15 -15 16 -16 5 0 -10 -2
-10 -6 -1 -2 6 -9 10 -14 6 -5 -3 -9 -1 -9 5 0 5 -11 8 -25 7 -13 -2 -22 1
-19 5 5 8 -18 13 -53 12 -7 -1 -10 3 -7 8 5 8 -17 14 -38 10 -5 0 -8 4 -8 11
0 6 -3 8 -7 5 -3 -4 -17 0 -31 9 -17 11 -22 12 -16 3 6 -11 5 -12 -8 -2 -8 7
-18 10 -21 6 -4 -3 -7 -1 -7 5 0 7 16 12 40 12 22 0 40 4 40 8 0 4 -152 9
-337 10 -542 2 -583 5 -583 33 0 6 199 8 527 7 493 -3 528 -4 531 -20z m2562
2 c9 -16 8 -20 -5 -20 -9 0 -14 -4 -10 -10 3 -5 12 -7 20 -3 10 3 32 -14 63
-47 26 -29 66 -74 89 -99 l43 -46 -1 -387 c0 -292 -3 -389 -12 -394 -7 -4 -9
-4 -5 0 3 4 0 23 -8 42 -8 19 -12 39 -9 44 4 6 2 10 -2 10 -5 0 -9 10 -10 23
0 36 -12 97 -33 172 -23 87 -22 276 2 342 9 24 11 40 5 36 -6 -4 -7 -1 -1 8
11 17 13 99 2 99 -4 0 -5 6 -2 14 3 8 -4 24 -15 35 -12 12 -19 21 -16 21 3 0
0 6 -7 14 -9 10 -15 11 -20 2 -5 -7 -8 -6 -8 5 0 9 -6 16 -12 16 -7 1 -43 10
-80 21 -36 11 -69 18 -72 14 -3 -3 -6 1 -6 8 0 7 -3 10 -7 7 -3 -4 -13 -1 -21
6 -13 10 -14 9 -7 -3 5 -9 -1 -7 -15 5 -14 12 -20 14 -15 5 7 -12 6 -13 -7 -3
-8 7 -17 10 -20 7 -3 -3 -8 -1 -11 4 -6 8 46 14 141 16 23 0 42 3 42 7 0 4
-165 6 -367 5 l-367 -1 -98 -114 c-54 -63 -98 -122 -98 -133 0 -14 9 -8 37 22
44 49 70 66 70 44 0 -7 -5 -14 -11 -14 -6 0 -4 -5 4 -10 8 -5 11 -10 5 -10 -5
0 -11 -24 -11 -53 -2 -57 -5 -70 -27 -134 -9 -28 -11 -40 -3 -36 8 5 8 3 0 -8
-10 -13 -10 -44 -1 -139 2 -19 -1 -44 -7 -55 -6 -11 -11 -23 -12 -27 -1 -5 -2
-11 -3 -14 -2 -13 -30 18 -34 39 -2 12 -5 -2 -6 -31 0 -33 -5 -51 -11 -47 -6
4 -10 96 -10 244 0 157 -4 241 -11 248 -8 8 22 47 106 142 l116 131 379 0
c369 0 380 -1 390 -20z m-3581 -67 c-4 -23 4 -114 8 -93 8 43 23 53 46 33 11
-10 17 -12 13 -5 -14 23 2 12 19 -14 11 -18 12 -24 4 -18 -12 7 -12 5 -1 -9 8
-9 11 -21 8 -26 -4 -5 -2 -13 4 -16 7 -4 7 -12 2 -18 -4 -7 -8 -24 -7 -39 0
-16 -2 -28 -5 -28 -4 0 -7 -7 -8 -15 -1 -8 -3 -22 -4 -30 -1 -8 -8 -15 -17
-15 -13 0 -13 -2 -3 -9 10 -6 9 -10 -7 -14 -12 -3 -21 -11 -21 -19 0 -10 3 -9
10 2 5 8 10 10 10 4 0 -17 -26 -37 -27 -21 -1 6 -5 30 -11 52 -8 31 -10 4 -10
-130 0 -123 3 -160 9 -135 5 19 10 46 11 59 l1 25 14 -27 c7 -15 16 -27 19
-27 2 0 0 9 -6 19 -21 40 -9 34 15 -7 13 -23 26 -57 29 -75 2 -17 5 -34 6 -37
3 -9 -1 -121 -5 -142 -3 -12 -9 -35 -15 -53 -13 -39 -21 -73 -23 -100 -1 -11
-6 -23 -12 -27 -6 -5 -5 -8 3 -8 9 0 10 -5 2 -19 -7 -14 -7 -22 0 -26 7 -4 7
-11 2 -18 -5 -7 -8 -21 -6 -31 1 -11 0 -25 -4 -30 -7 -11 -8 -17 -10 -50 -3
-38 -17 -3 -23 57 l-6 62 -1 -82 c-1 -45 -7 -85 -12 -88 -10 -6 -13 1171 -3
1188 2 4 6 7 9 7 2 0 3 -3 3 -7z m699 -120 c-10 -2 -26 -2 -35 0 -10 3 -2 5
17 5 19 0 27 -2 18 -5z m2640 0 c-16 -2 -40 -2 -55 0 -16 2 -3 4 27 4 30 0 43
-2 28 -4z m210 -133 c0 -39 -5 -73 -10 -77 -6 -3 -9 -2 -6 3 3 5 2 34 -2 64
-6 46 0 80 15 80 1 0 3 -31 3 -70z m-2696 6 c35 -38 35 -48 1 -92 l-28 -34
-256 0 -255 0 0 73 c0 39 4 75 9 78 5 3 119 6 255 6 l246 0 28 -31z m2610 -78
l3 -108 -262 0 -263 0 0 109 0 108 259 -1 260 -1 3 -107z m-2514 -20 c-13 -23
-37 -56 -54 -75 l-31 -33 -154 -1 c-372 -2 -406 -4 -422 -18 -12 -9 -17 -10
-17 -2 0 7 -5 9 -10 6 -6 -3 -13 1 -16 9 -3 9 -9 14 -13 11 -4 -2 -8 2 -8 10
0 12 52 14 316 15 355 0 314 -9 379 84 39 57 62 52 30 -6z m461 -153 c3 62 17
130 21 108 3 -15 7 -30 10 -40 6 -20 4 -39 -5 -45 -6 -5 -6 -8 2 -8 6 0 10 -9
8 -20 -2 -11 2 -20 8 -20 8 0 8 -3 -1 -9 -19 -11 -19 -15 -4 -34 9 -11 10 -17
2 -22 -8 -5 -8 -10 0 -20 6 -7 7 -16 2 -19 -10 -6 -7 -90 4 -108 5 -7 3 -8 -6
-3 -9 6 -11 4 -5 -5 4 -7 9 -24 11 -39 5 -49 13 -75 26 -83 10 -6 10 -8 -2 -8
-10 0 -7 -5 8 -16 12 -8 22 -22 22 -31 0 -9 3 -13 6 -10 4 4 18 -6 32 -21 13
-15 22 -22 18 -16 -3 6 12 3 33 -8 57 -28 69 -29 303 -32 120 -1 221 -5 225
-9 5 -6 -258 -9 -672 -9 -14 0 -36 0 -50 1 l-25 1 0 329 c0 335 10 462 21 251
3 -83 6 -98 8 -55z m1443 62 l3 -49 325 1 c200 1 329 6 336 12 21 17 27 -8 7
-28 -16 -16 -45 -18 -308 -21 -159 -2 -293 -6 -297 -8 -5 -3 -6 -9 -4 -13 3
-4 -8 -5 -25 -3 -16 2 -40 17 -54 34 -21 25 -24 33 -13 46 10 12 10 14 0 8
-14 -8 -12 19 2 43 7 10 5 12 -3 6 -9 -5 -9 -2 1 14 17 28 26 15 30 -42z
m-1995 -191 c3 -3 -50 -6 -118 -5 -68 1 -113 4 -99 8 30 9 208 6 217 -3z
m2653 -48 c8 -1 21 -10 28 -18 12 -13 13 -13 6 0 -7 13 -6 13 10 0 21 -16 39
-55 40 -87 1 -12 4 -25 8 -29 4 -4 3 -13 -3 -21 -9 -10 -8 -13 2 -13 11 0 11
-2 -1 -10 -11 -7 -11 -10 -2 -10 9 0 10 -5 3 -18 -6 -11 -6 -24 0 -33 12 -19
11 -32 -2 -23 -8 4 -8 0 0 -15 9 -16 9 -21 -1 -21 -8 0 -9 -3 -3 -8 11 -7 15
-92 5 -92 -16 0 -49 33 -43 43 4 7 0 6 -10 -2 -16 -12 -17 -4 -19 115 0 71 -2
149 -2 174 l-1 45 -150 5 c-159 6 -165 8 -70 16 33 4 61 7 62 8 3 2 128 -2
143 -6z m-1015 -148 c-11 -18 -73 -21 -442 -24 -205 -1 -375 -5 -379 -9 -10
-10 -44 12 -44 28 0 13 60 15 436 15 276 0 433 -4 429 -10z m133 -158 c1 20 7
40 12 43 6 4 8 10 5 15 -3 4 2 11 11 14 8 3 12 2 9 -4 -3 -6 0 -10 7 -10 10 0
14 -14 13 -48 l0 -48 -42 -3 -43 -2 0 53 c0 93 14 112 21 28 3 -41 6 -58 7
-38z m-2403 50 c-1 -15 -3 -35 -3 -45 -1 -10 -7 -15 -12 -12 -6 4 -8 10 -5 15
3 5 1 11 -4 14 -9 6 -9 13 4 54 10 29 23 12 20 -26z"/>
<path d="M2655 2971 c-3 -5 -2 -12 3 -15 5 -3 9 1 9 9 0 17 -3 19 -12 6z"/>
<path d="M3560 2332 c0 -4 13 -8 29 -7 16 0 27 3 24 7 -6 11 -53 10 -53 0z"/>
<path d="M2651 1334 c0 -11 3 -14 6 -6 3 7 2 16 -1 19 -3 4 -6 -2 -5 -13z"/>
<path d="M2651 1294 c0 -11 3 -14 6 -6 3 7 2 16 -1 19 -3 4 -6 -2 -5 -13z"/>
<path d="M4051 1714 c0 -11 3 -14 6 -6 3 7 2 16 -1 19 -3 4 -6 -2 -5 -13z"/>
<path d="M4051 1674 c0 -11 3 -14 6 -6 3 7 2 16 -1 19 -3 4 -6 -2 -5 -13z"/>
<path d="M4051 1634 c0 -11 3 -14 6 -6 3 7 2 16 -1 19 -3 4 -6 -2 -5 -13z"/>
<path d="M5722 3818 c-15 -15 -17 -1162 -2 -1202 l10 -26 509 0 509 0 103 116
c56 64 110 132 120 150 19 38 15 70 -10 83 -9 5 -202 8 -429 7 l-412 -1 0 47
0 47 266 3 267 3 79 85 c44 47 93 104 109 127 29 42 38 96 19 108 -6 4 -177 6
-380 5 l-370 -1 0 56 0 55 329 0 329 0 73 82 c41 45 87 96 102 112 61 66 78
95 75 123 l-3 28 -640 3 c-490 2 -644 -1 -653 -10z m1208 -36 c0 -10 -45 -32
-65 -32 -8 0 -17 -5 -21 -12 -4 -7 -3 -8 4 -4 21 13 13 -10 -10 -31 -29 -27
-60 -32 -83 -13 -11 8 -16 10 -11 3 5 -9 2 -11 -8 -7 -9 3 -13 11 -9 18 4 6
-1 5 -10 -3 -14 -11 -18 -11 -23 4 -5 13 -9 14 -15 3 -7 -10 -9 -11 -9 0 0 7
-4 10 -10 7 -5 -3 -10 -1 -10 4 0 6 14 11 30 11 17 0 30 4 30 8 0 5 -165 9
-367 10 -552 3 -577 4 -581 25 -3 16 30 17 582 17 322 0 586 -4 586 -8z m-140
-457 c0 -2 -13 -11 -29 -19 -24 -13 -87 -16 -365 -16 -185 -1 -341 2 -347 5
-7 5 -6 11 2 21 9 12 74 14 375 14 200 0 364 -2 364 -5z m-210 -67 c0 8 20 12
66 12 60 0 64 -1 49 -16 -9 -9 -19 -14 -22 -10 -3 3 -12 -2 -20 -12 -10 -14
-12 -14 -8 -1 4 10 0 16 -10 16 -8 0 -15 -5 -15 -11 0 -5 -7 -1 -16 10 -8 10
-13 14 -10 7 4 -7 -1 -10 -11 -9 -9 2 -19 9 -21 17 -3 11 -1 11 7 -1 7 -10 11
-11 11 -2z m300 -385 c-22 -16 -61 -17 -420 -16 -217 1 -398 2 -402 2 -5 1 -8
8 -8 16 0 13 54 15 427 15 406 0 426 -1 403 -17z m-1077 -137 c10 71 39 90 72
49 9 -11 13 -13 9 -6 -5 9 4 6 23 -7 17 -12 33 -19 37 -15 3 3 6 1 6 -5 0 -6
10 -14 23 -18 12 -3 31 -14 41 -23 12 -10 16 -11 12 -3 -7 11 -4 12 11 3 11
-6 23 -7 27 -4 3 3 6 2 6 -3 0 -5 97 -10 226 -11 124 -1 228 -4 232 -7 3 -3
-167 -6 -377 -6 l-383 0 6 43 c3 23 6 60 7 82 2 22 5 5 8 -40 l6 -80 8 51z
m1007 92 c3 -3 -8 -17 -24 -29 -28 -22 -29 -22 -23 -4 7 20 7 20 -8 1 -13 -17
-19 -15 -17 5 1 3 -5 6 -13 6 -8 0 -12 -4 -10 -8 8 -11 -26 -4 -33 8 -4 5 -15
9 -24 7 -10 -1 -18 2 -18 7 0 4 -8 6 -17 3 -12 -4 -14 -3 -6 3 13 10 186 11
193 1z"/>
<path d="M6720 3742 c0 -4 13 -8 30 -8 16 -1 27 2 24 7 -6 11 -54 12 -54 1z"/>
<path d="M6790 3740 c0 -5 5 -10 11 -10 5 0 7 5 4 10 -3 6 -8 10 -11 10 -2 0
-4 -4 -4 -10z"/>
<path d="M7065 3379 c-19 -10 -195 -313 -195 -337 0 -7 9 -21 20 -32 20 -20
33 -20 574 -20 305 0 562 3 570 6 9 3 33 36 53 73 20 36 45 79 56 94 33 48 77
146 77 172 0 55 4 55 -590 54 -336 0 -553 -4 -565 -10z m1068 -46 c4 -3 2 -12
-4 -20 -9 -10 -107 -13 -520 -13 l-508 0 -57 -110 c-50 -97 -82 -135 -100
-117 -2 2 19 44 47 93 28 49 61 108 72 132 l21 42 521 0 c287 0 525 -3 528 -7z
m-43 -59 c0 -4 -12 -27 -26 -51 -23 -40 -28 -43 -56 -39 -17 2 -49 19 -72 37
-22 18 -34 24 -26 14 10 -14 5 -12 -14 5 -16 14 -26 19 -21 11 6 -11 3 -11
-14 2 -13 8 -30 13 -37 10 -8 -3 -14 -1 -14 4 0 5 63 10 140 12 77 1 140 -1
140 -5z m-960 -105 c14 -11 19 -17 11 -13 -9 5 -12 3 -7 -5 4 -6 12 -9 17 -6
5 4 23 -4 41 -16 17 -13 28 -17 23 -9 -6 10 -4 11 6 4 24 -15 37 -15 284 -19
217 -2 322 -9 334 -21 2 -2 -183 -4 -412 -4 l-416 0 26 45 c21 39 46 64 63 64
3 1 16 -9 30 -20z"/>
<path d="M6610 2411 c-23 -45 -44 -18 311 -410 52 -57 124 -138 162 -181 l67
-78 0 -275 0 -275 143 -95 c169 -112 178 -117 211 -117 54 0 56 11 56 411 0
329 2 368 17 380 9 8 48 52 86 99 39 47 85 101 103 120 18 19 56 62 86 95 29
33 85 96 125 140 100 111 113 130 113 157 0 46 -11 48 -236 48 l-212 0 -49
-57 c-45 -54 -67 -78 -143 -163 -17 -19 -47 -54 -67 -77 l-35 -42 -37 42 c-20
24 -53 61 -72 82 -45 50 -136 151 -169 187 l-24 28 -213 0 c-200 0 -213 -1
-223 -19z m398 -52 c3 -15 -13 -16 -146 -14 -113 2 -155 6 -178 18 -27 16 -19
16 146 14 153 -2 175 -4 178 -18z m982 11 c0 -13 -34 -30 -59 -30 -11 0 -23
-5 -26 -10 -4 -6 -3 -9 2 -8 36 12 -24 -72 -86 -121 -36 -29 -36 -29 -36 -6 0
13 5 20 10 17 6 -3 4 2 -3 11 -8 9 -10 22 -6 28 4 8 3 9 -4 5 -7 -4 -12 -1
-12 9 0 9 -4 14 -9 11 -12 -8 -8 21 5 34 6 6 29 11 52 13 75 4 44 14 -47 15
l-90 1 -103 -117 c-56 -64 -127 -143 -157 -174 -53 -56 -91 -74 -91 -42 0 8 4
13 9 10 5 -3 82 77 172 179 l164 185 157 0 c95 0 158 -4 158 -10z m-849 -172
c35 -40 56 -67 46 -59 -21 17 -121 131 -114 131 2 0 33 -33 68 -72z m-46 -220
c5 4 6 0 3 -8 -4 -12 1 -15 21 -14 14 1 31 -3 38 -8 7 -5 14 -5 17 1 8 12 43
6 64 -11 13 -11 15 -11 8 2 -4 8 6 0 23 -19 17 -19 28 -38 25 -43 -3 -4 0 -8
6 -8 6 0 8 -4 5 -10 -3 -5 -2 -10 3 -10 10 0 10 -4 12 -75 1 -27 -4 -65 -9
-84 -6 -19 -8 -38 -5 -42 3 -5 1 -9 -4 -9 -11 0 -12 -4 -16 -130 -2 -58 -5
-109 -6 -115 -1 -5 -1 -14 0 -20 2 -5 4 -43 4 -82 2 -71 1 -72 -19 -59 -19 13
-20 26 -25 227 l-6 214 -2 -207 c-1 -134 -6 -208 -12 -208 -7 0 -10 92 -10
270 l1 269 -66 78 c-68 80 -103 130 -73 106 8 -7 19 -9 23 -5z m365 -438 c0
-113 -4 -170 -11 -170 -5 0 -7 5 -4 10 3 6 2 10 -3 10 -5 0 -9 6 -10 13 0 6
-4 28 -8 47 -16 79 5 260 31 260 3 0 5 -76 5 -170z"/>
<path d="M1356 1868 c-36 -33 -176 -289 -176 -323 0 -55 -12 -54 587 -55 l552
0 24 23 c14 12 41 51 60 87 19 36 53 99 76 141 47 86 50 111 19 133 -20 14
-91 16 -570 16 l-547 0 -25 -22z m1065 -49 c-24 -19 -38 -20 -510 -19 -267 0
-492 1 -498 0 -7 0 -37 -49 -67 -109 -40 -80 -61 -110 -77 -114 -13 -4 -24 -5
-26 -3 -2 1 20 43 48 92 28 49 61 108 72 132 l21 42 530 0 531 -1 -24 -20z
m-95 -45 c28 -7 28 -7 5 -16 -16 -6 -21 -13 -17 -25 4 -10 4 -14 0 -10 -4 4
-13 2 -20 -4 -8 -7 -14 -6 -20 2 -4 7 -3 9 4 5 6 -3 13 -3 16 2 2 4 -15 7 -40
6 -24 -1 -44 2 -44 8 0 5 -4 7 -9 3 -5 -3 -13 0 -16 6 -4 5 -13 8 -21 5 -7 -3
-16 -1 -19 5 -4 5 -10 7 -15 4 -5 -3 -11 -1 -14 4 -7 10 170 15 210 5z m-901
-94 c4 -6 11 -8 16 -5 5 4 9 -1 9 -10 0 -9 5 -13 10 -10 6 3 10 1 10 -6 0 -7
3 -10 6 -6 3 3 22 -3 41 -14 19 -11 31 -14 27 -8 -5 8 -3 9 7 3 23 -14 36 -15
294 -20 285 -5 275 -5 275 -16 0 -4 -182 -8 -405 -8 -223 0 -405 3 -405 8 0 4
16 28 35 55 34 45 66 60 80 37z"/>
</g>
</svg>
